<svg xmlns="http://www.w3.org/2000/svg" fill="none" viewBox="0 0 48 48" height="48" width="48">
  <g id="recycle-bin-2--remove-delete-empty-bin-trash-garbage">
    <path id="Union" fill="#b90400" fill-rule="evenodd"
      d="M16.336 5.188A8 8 0 0 1 23.37 1h1.26a8 8 0 0 1 7.034 4.188c3.28 0.067 5.861 0.169 7.744 0.264 2.67 0.134 5.364 1.58 6.188 4.41 0.107 0.367 0.206 0.757 0.294 1.168 0.54 2.524 -1.377 4.585 -3.751 4.785 -3.056 0.259 -8.613 0.55 -18.162 0.55 -9.547 0 -15.104 -0.291 -18.16 -0.55 -2.356 -0.199 -4.338 -2.273 -3.658 -4.821 0.188 -0.707 0.42 -1.35 0.663 -1.92C3.83 6.713 6.21 5.598 8.522 5.47c1.813 -0.1 4.403 -0.21 7.814 -0.282ZM5.564 18.805a6.955 6.955 0 0 1 -0.695 -0.095c0.821 12.047 1.592 18.538 2.07 21.774 0.332 2.251 1.85 4.217 4.226 4.788 2.445 0.587 6.55 1.227 12.837 1.227 6.286 0 10.392 -0.64 12.837 -1.227 2.375 -0.571 3.894 -2.537 4.226 -4.788 0.478 -3.237 1.249 -9.73 2.07 -21.782a7.176 7.176 0 0 1 -0.743 0.103c-3.165 0.267 -8.812 0.56 -18.415 0.56 -9.602 0 -15.248 -0.293 -18.413 -0.56ZM19.99 26.8a2 2 0 1 0 -3.98 0.398l1 10a2 2 0 1 0 3.98 -0.398l-1 -10Zm10.21 -1.79a2 2 0 0 0 -2.19 1.79l-1 10a2 2 0 1 0 3.98 0.399l1 -10a2 2 0 0 0 -1.79 -2.19Z"
      clip-rule="evenodd" stroke-width="1"></path>
  </g>
</svg>